<?xml version="1.0" standalone="no"?>
<!DOCTYPE svg PUBLIC "-//W3C//DTD SVG 20010904//EN"
 "http://www.w3.org/TR/2001/REC-SVG-20010904/DTD/svg10.dtd">
<svg version="1.0" xmlns="http://www.w3.org/2000/svg"
 width="200.000000pt" height="200.000000pt" viewBox="0 0 200.000000 200.000000"
 preserveAspectRatio="xMidYMid meet">
<metadata>
Created by potrace 1.11, written by Peter Selinger 2001-2013
</metadata>
<g transform="translate(0.000000,200.000000) scale(0.100000,-0.100000)"
fill="#000000" stroke="none">
<path d="M591 1454 c-225 -48 -362 -221 -362 -454 0 -202 107 -362 287 -429
80 -30 167 -41 347 -41 l157 0 0 295 0 295 -185 0 -185 0 0 -50 0 -50 135 0
135 0 0 -196 0 -196 -152 5 c-84 3 -169 10 -188 16 -105 32 -203 126 -236 226
-25 73 -22 195 6 270 31 81 113 163 195 196 l60 24 585 5 585 5 0 45 0 45
-560 2 c-448 1 -573 -1 -624 -13z"/>
<path d="M596 1304 c-120 -37 -192 -118 -216 -243 -28 -149 52 -299 188 -352
45 -18 84 -24 180 -27 l122 -4 0 151 0 151 -110 0 -110 0 0 -45 0 -45 60 0 60
0 0 -55 0 -55 -62 0 c-99 1 -172 40 -209 112 -22 42 -26 158 -8 205 15 40 57
82 104 104 36 17 70 19 368 19 l327 0 0 -346 0 -345 43 3 42 3 3 393 2 392
-367 -1 c-297 0 -377 -3 -417 -15z"/>
<path d="M1420 924 l0 -395 43 3 42 3 3 342 2 342 133 3 132 3 3 48 3 47 -180
0 -181 0 0 -396z"/>
</g>
</svg>
