<svg id="Layer_1" data-name="Layer 1" xmlns="http://www.w3.org/2000/svg" viewBox="0 0 39.91 24.05"><defs><style>.cls-1{fill:#d37433;}</style></defs><title>Artboard 1</title><path class="cls-1" d="M12.51,3.78a10,10,0,0,0-3.42.58A8.1,8.1,0,0,0,6.34,6,7.51,7.51,0,0,0,4.52,8.59,8.47,8.47,0,0,0,3.85,12a8.56,8.56,0,0,0,.66,3.44A7.5,7.5,0,0,0,6.34,18a8.09,8.09,0,0,0,2.76,1.64,10,10,0,0,0,3.42.58h4v-7.7H10.94v2.41h3.15v2.88H12.51a6.65,6.65,0,0,1-4.45-1.46A5.41,5.41,0,0,1,6.34,12,5.36,5.36,0,0,1,8.06,7.63a6.7,6.7,0,0,1,4.45-1.44H27.44V24H29.6V3.78H12.51Z"/><polygon class="cls-1" points="30.82 24.05 32.98 24.05 32.98 6.19 39.91 6.19 39.91 3.78 30.82 3.78 30.82 24.05"/><path class="cls-1" d="M20.47,0h-8a14,14,0,0,0-5,.88,11.74,11.74,0,0,0-4,2.47A11.24,11.24,0,0,0,.93,7.13,12.31,12.31,0,0,0,0,12a12.44,12.44,0,0,0,.93,4.88,11.18,11.18,0,0,0,2.59,3.8,11.72,11.72,0,0,0,4,2.47,13.94,13.94,0,0,0,5,.88h8V9.07H10.94v2.41h7V21.6H12.51a11.52,11.52,0,0,1-4-.68A9.38,9.38,0,0,1,5.28,19a8.71,8.71,0,0,1-2.09-3A10.11,10.11,0,0,1,2.44,12a10,10,0,0,1,.75-3.92A8.76,8.76,0,0,1,5.28,5,9.39,9.39,0,0,1,8.47,3.1a11.54,11.54,0,0,1,4-.68h27.4V0Z"/></svg>